<svg width="281" height="46" viewBox="0 0 281 46" fill="none" xmlns="http://www.w3.org/2000/svg">
<path d="M13.0156 20.7891C9.15625 19.6797 6.34375 18.3203 4.57812 16.7109C2.82812 15.0859 1.95312 13.0859 1.95312 10.7109C1.95312 8.02344 3.02344 5.80469 5.16406 4.05469C7.32031 2.28906 10.1172 1.40625 13.5547 1.40625C15.8984 1.40625 17.9844 1.85937 19.8125 2.76562C21.6562 3.67188 23.0781 4.92188 24.0781 6.51562C25.0938 8.10938 25.6016 9.85156 25.6016 11.7422H21.0781C21.0781 9.67969 20.4219 8.0625 19.1094 6.89062C17.7969 5.70312 15.9453 5.10938 13.5547 5.10938C11.3359 5.10938 9.60156 5.60156 8.35156 6.58594C7.11719 7.55469 6.5 8.90625 6.5 10.6406C6.5 12.0312 7.08594 13.2109 8.25781 14.1797C9.44531 15.1328 11.4531 16.0078 14.2812 16.8047C17.125 17.6016 19.3438 18.4844 20.9375 19.4531C22.5469 20.4062 23.7344 21.5234 24.5 22.8047C25.2812 24.0859 25.6719 25.5938 25.6719 27.3281C25.6719 30.0938 24.5938 32.3125 22.4375 33.9844C20.2812 35.6406 17.3984 36.4688 13.7891 36.4688C11.4453 36.4688 9.25781 36.0234 7.22656 35.1328C5.19531 34.2266 3.625 32.9922 2.51562 31.4297C1.42188 29.8672 0.875 28.0938 0.875 26.1094H5.39844C5.39844 28.1719 6.15625 29.8047 7.67188 31.0078C9.20312 32.1953 11.2422 32.7891 13.7891 32.7891C16.1641 32.7891 17.9844 32.3047 19.25 31.3359C20.5156 30.3672 21.1484 29.0469 21.1484 27.375C21.1484 25.7031 20.5625 24.4141 19.3906 23.5078C18.2188 22.5859 16.0938 21.6797 13.0156 20.7891ZM29.7266 23.1094C29.7266 19.125 30.6406 15.9766 32.4688 13.6641C34.2969 11.3359 36.75 10.1719 39.8281 10.1719C42.8281 10.1719 45.1953 11.1797 46.9297 13.1953L47.1172 10.6406H51.1016V45.75H46.7656V33.6562C45.0156 35.5312 42.6875 36.4688 39.7812 36.4688C36.7188 36.4688 34.2734 35.2812 32.4453 32.9062C30.6328 30.5156 29.7266 27.3516 29.7266 23.4141V23.1094ZM34.0625 23.6016C34.0625 26.5078 34.6719 28.7891 35.8906 30.4453C37.125 32.1016 38.7812 32.9297 40.8594 32.9297C43.4375 32.9297 45.4062 31.7891 46.7656 29.5078V17.0859C45.3906 14.8516 43.4375 13.7344 40.9062 13.7344C38.8125 13.7344 37.1484 14.5703 35.9141 16.2422C34.6797 17.8984 34.0625 20.3516 34.0625 23.6016ZM73.7188 33.4922C72.0312 35.4766 69.5547 36.4688 66.2891 36.4688C63.5859 36.4688 61.5234 35.6875 60.1016 34.125C58.6953 32.5469 57.9844 30.2188 57.9688 27.1406V10.6406H62.3047V27.0234C62.3047 30.8672 63.8672 32.7891 66.9922 32.7891C70.3047 32.7891 72.5078 31.5547 73.6016 29.0859V10.6406H77.9375V36H73.8125L73.7188 33.4922ZM89.2578 36H84.9219V10.6406H89.2578V36ZM84.5703 3.91406C84.5703 3.21094 84.7812 2.61719 85.2031 2.13281C85.6406 1.64844 86.2812 1.40625 87.125 1.40625C87.9688 1.40625 88.6094 1.64844 89.0469 2.13281C89.4844 2.61719 89.7031 3.21094 89.7031 3.91406C89.7031 4.61719 89.4844 5.20312 89.0469 5.67188C88.6094 6.14062 87.9688 6.375 87.125 6.375C86.2812 6.375 85.6406 6.14062 85.2031 5.67188C84.7812 5.20312 84.5703 4.61719 84.5703 3.91406ZM95.1641 23.1094C95.1641 19.2188 96.0859 16.0938 97.9297 13.7344C99.7734 11.3594 102.188 10.1719 105.172 10.1719C108.141 10.1719 110.492 11.1875 112.227 13.2188V0H116.562V36H112.578L112.367 33.2812C110.633 35.4062 108.219 36.4688 105.125 36.4688C102.188 36.4688 99.7891 35.2656 97.9297 32.8594C96.0859 30.4531 95.1641 27.3125 95.1641 23.4375V23.1094ZM99.5 23.6016C99.5 26.4766 100.094 28.7266 101.281 30.3516C102.469 31.9766 104.109 32.7891 106.203 32.7891C108.953 32.7891 110.961 31.5547 112.227 29.0859V17.4375C110.93 15.0469 108.938 13.8516 106.25 13.8516C104.125 13.8516 102.469 14.6719 101.281 16.3125C100.094 17.9531 99.5 20.3828 99.5 23.6016ZM161.094 31.5234C159.938 33.1797 158.32 34.4219 156.242 35.25C154.18 36.0625 151.773 36.4688 149.023 36.4688C146.242 36.4688 143.773 35.8203 141.617 34.5234C139.461 33.2109 137.789 31.3516 136.602 28.9453C135.43 26.5391 134.828 23.75 134.797 20.5781V17.6016C134.797 12.4609 135.992 8.47656 138.383 5.64844C140.789 2.82031 144.164 1.40625 148.508 1.40625C152.07 1.40625 154.938 2.32031 157.109 4.14844C159.281 5.96094 160.609 8.53906 161.094 11.8828H156.594C155.75 7.36719 153.062 5.10938 148.531 5.10938C145.516 5.10938 143.227 6.17187 141.664 8.29688C140.117 10.4062 139.336 13.4688 139.32 17.4844V20.2734C139.32 24.1016 140.195 27.1484 141.945 29.4141C143.695 31.6641 146.062 32.7891 149.047 32.7891C150.734 32.7891 152.211 32.6016 153.477 32.2266C154.742 31.8516 155.789 31.2188 156.617 30.3281V22.6641H148.719V19.0078H161.094V31.5234ZM183.594 36C183.344 35.5 183.141 34.6094 182.984 33.3281C180.969 35.4219 178.562 36.4688 175.766 36.4688C173.266 36.4688 171.211 35.7656 169.602 34.3594C168.008 32.9375 167.211 31.1406 167.211 28.9688C167.211 26.3281 168.211 24.2812 170.211 22.8281C172.227 21.3594 175.055 20.625 178.695 20.625H182.914V18.6328C182.914 17.1172 182.461 15.9141 181.555 15.0234C180.648 14.1172 179.312 13.6641 177.547 13.6641C176 13.6641 174.703 14.0547 173.656 14.8359C172.609 15.6172 172.086 16.5625 172.086 17.6719H167.727C167.727 16.4062 168.172 15.1875 169.062 14.0156C169.969 12.8281 171.188 11.8906 172.719 11.2031C174.266 10.5156 175.961 10.1719 177.805 10.1719C180.727 10.1719 183.016 10.9062 184.672 12.375C186.328 13.8281 187.188 15.8359 187.25 18.3984V30.0703C187.25 32.3984 187.547 34.25 188.141 35.625V36H183.594ZM176.398 32.6953C177.758 32.6953 179.047 32.3438 180.266 31.6406C181.484 30.9375 182.367 30.0234 182.914 28.8984V23.6953H179.516C174.203 23.6953 171.547 25.25 171.547 28.3594C171.547 29.7188 172 30.7812 172.906 31.5469C173.812 32.3125 174.977 32.6953 176.398 32.6953ZM198.125 10.6406L198.242 13.4531C200.102 11.2656 202.609 10.1719 205.766 10.1719C209.312 10.1719 211.727 11.5312 213.008 14.25C213.852 13.0312 214.945 12.0469 216.289 11.2969C217.648 10.5469 219.25 10.1719 221.094 10.1719C226.656 10.1719 229.484 13.1172 229.578 19.0078V36H225.242V19.2656C225.242 17.4531 224.828 16.1016 224 15.2109C223.172 14.3047 221.781 13.8516 219.828 13.8516C218.219 13.8516 216.883 14.3359 215.82 15.3047C214.758 16.2578 214.141 17.5469 213.969 19.1719V36H209.609V19.3828C209.609 15.6953 207.805 13.8516 204.195 13.8516C201.352 13.8516 199.406 15.0625 198.359 17.4844V36H194.023V10.6406H198.125ZM246.664 36.4688C243.227 36.4688 240.43 35.3438 238.273 33.0938C236.117 30.8281 235.039 27.8047 235.039 24.0234V23.2266C235.039 20.7109 235.516 18.4688 236.469 16.5C237.438 14.5156 238.781 12.9688 240.5 11.8594C242.234 10.7344 244.109 10.1719 246.125 10.1719C249.422 10.1719 251.984 11.2578 253.812 13.4297C255.641 15.6016 256.555 18.7109 256.555 22.7578V24.5625H239.375C239.438 27.0625 240.164 29.0859 241.555 30.6328C242.961 32.1641 244.742 32.9297 246.898 32.9297C248.43 32.9297 249.727 32.6172 250.789 31.9922C251.852 31.3672 252.781 30.5391 253.578 29.5078L256.227 31.5703C254.102 34.8359 250.914 36.4688 246.664 36.4688ZM246.125 13.7344C244.375 13.7344 242.906 14.375 241.719 15.6562C240.531 16.9219 239.797 18.7031 239.516 21H252.219V20.6719C252.094 18.4688 251.5 16.7656 250.438 15.5625C249.375 14.3438 247.938 13.7344 246.125 13.7344ZM276.359 29.2734C276.359 28.1016 275.914 27.1953 275.023 26.5547C274.148 25.8984 272.609 25.3359 270.406 24.8672C268.219 24.3984 266.477 23.8359 265.18 23.1797C263.898 22.5234 262.945 21.7422 262.32 20.8359C261.711 19.9297 261.406 18.8516 261.406 17.6016C261.406 15.5234 262.281 13.7656 264.031 12.3281C265.797 10.8906 268.047 10.1719 270.781 10.1719C273.656 10.1719 275.984 10.9141 277.766 12.3984C279.562 13.8828 280.461 15.7812 280.461 18.0938H276.102C276.102 16.9062 275.594 15.8828 274.578 15.0234C273.578 14.1641 272.312 13.7344 270.781 13.7344C269.203 13.7344 267.969 14.0781 267.078 14.7656C266.188 15.4531 265.742 16.3516 265.742 17.4609C265.742 18.5078 266.156 19.2969 266.984 19.8281C267.812 20.3594 269.305 20.8672 271.461 21.3516C273.633 21.8359 275.391 22.4141 276.734 23.0859C278.078 23.7578 279.07 24.5703 279.711 25.5234C280.367 26.4609 280.695 27.6094 280.695 28.9688C280.695 31.2344 279.789 33.0547 277.977 34.4297C276.164 35.7891 273.812 36.4688 270.922 36.4688C268.891 36.4688 267.094 36.1094 265.531 35.3906C263.969 34.6719 262.742 33.6719 261.852 32.3906C260.977 31.0938 260.539 29.6953 260.539 28.1953H264.875C264.953 29.6484 265.531 30.8047 266.609 31.6641C267.703 32.5078 269.141 32.9297 270.922 32.9297C272.562 32.9297 273.875 32.6016 274.859 31.9453C275.859 31.2734 276.359 30.3828 276.359 29.2734Z" fill="url(#paint0_linear_2_62)"/>
<defs>
<linearGradient id="paint0_linear_2_62" x1="323" y1="-31.5" x2="-52" y2="103.5" gradientUnits="userSpaceOnUse">
<stop stop-color="white"/>
<stop offset="1" stop-color="#E93E7D"/>
</linearGradient>
</defs>
</svg>
