<svg width="108" height="46" viewBox="0 0 108 46" fill="none" xmlns="http://www.w3.org/2000/svg">
<g clip-path="url(#clip0_0_90)">
<path d="M9.22325 7.684C8.85925 7.488 8.47192 7.32933 8.06125 7.208C7.65058 7.08667 7.26325 7.026 6.89925 7.026C6.34858 7.026 5.90992 7.152 5.58325 7.404C5.26592 7.64667 5.10725 7.98267 5.10725 8.412C5.10725 8.832 5.29392 9.17733 5.66725 9.448C6.04992 9.70933 6.59125 9.97067 7.29125 10.232C7.81392 10.4187 8.25258 10.624 8.60725 10.848C8.97125 11.0627 9.26992 11.366 9.50325 11.758C9.74592 12.1407 9.86725 12.6307 9.86725 13.228C9.86725 13.7693 9.73192 14.2593 9.46125 14.698C9.19058 15.1367 8.80325 15.482 8.29925 15.734C7.80458 15.986 7.22125 16.112 6.54925 16.112C5.92392 16.112 5.32192 16.014 4.74325 15.818C4.16458 15.6127 3.65592 15.356 3.21725 15.048L3.81925 13.97C4.16458 14.2313 4.57992 14.4553 5.06525 14.642C5.55058 14.8193 6.00325 14.908 6.42325 14.908C6.96458 14.908 7.43592 14.768 7.83725 14.488C8.24792 14.208 8.45325 13.7927 8.45325 13.242C8.45325 12.7753 8.28058 12.4067 7.93525 12.136C7.59925 11.856 7.12325 11.5947 6.50725 11.352C5.93792 11.1373 5.46192 10.9273 5.07925 10.722C4.70592 10.5167 4.38392 10.2367 4.11325 9.882C3.84258 9.518 3.70725 9.06533 3.70725 8.524C3.70725 7.73067 3.98258 7.09133 4.53325 6.606C5.09325 6.11133 5.81658 5.85 6.70325 5.822C7.79525 5.822 8.80792 6.09267 9.74125 6.634L9.22325 7.684ZM19.3177 15.454C19.0564 15.6687 18.7437 15.8367 18.3797 15.958C18.025 16.0793 17.661 16.14 17.2877 16.14C16.6624 16.14 16.107 16.014 15.6217 15.762C15.1457 15.51 14.7724 15.1553 14.5017 14.698C14.2404 14.2313 14.1097 13.6947 14.1097 13.088C14.1097 12.4907 14.2497 11.9633 14.5297 11.506C14.8097 11.0393 15.183 10.68 15.6497 10.428C16.1164 10.176 16.6204 10.05 17.1617 10.05C18.0484 10.05 18.781 10.2927 19.3597 10.778L18.7017 11.632C18.515 11.492 18.3004 11.3753 18.0577 11.282C17.815 11.1793 17.5537 11.128 17.2737 11.128C16.9284 11.128 16.611 11.2167 16.3217 11.394C16.0417 11.562 15.8177 11.7953 15.6497 12.094C15.491 12.3927 15.4117 12.724 15.4117 13.088C15.4117 13.452 15.4957 13.7833 15.6637 14.082C15.841 14.3807 16.079 14.6187 16.3777 14.796C16.6764 14.9733 17.017 15.062 17.3997 15.062C17.8757 15.062 18.291 14.922 18.6457 14.642L19.3177 15.454ZM25.0585 11.576C25.2078 11.2587 25.4178 10.9787 25.6885 10.736C25.9685 10.4933 26.2625 10.3067 26.5705 10.176C26.8785 10.0453 27.1491 9.97533 27.3825 9.966L27.3265 11.268C26.9065 11.2493 26.5238 11.3333 26.1785 11.52C25.8425 11.7067 25.5765 11.968 25.3805 12.304C25.1938 12.6307 25.1005 12.9807 25.1005 13.354V16H23.7985V10.204H24.9605L25.0585 11.576ZM31.112 13.046C31.112 12.4767 31.2474 11.9587 31.518 11.492C31.798 11.016 32.1807 10.6427 32.666 10.372C33.1607 10.1013 33.716 9.966 34.332 9.966C34.948 9.966 35.494 10.1013 35.97 10.372C36.4554 10.6427 36.8287 11.0113 37.09 11.478C37.3607 11.9447 37.496 12.4673 37.496 13.046C37.496 13.6247 37.3607 14.152 37.09 14.628C36.8287 15.0947 36.4554 15.4633 35.97 15.734C35.4847 16.0047 34.9294 16.14 34.304 16.14C33.6974 16.14 33.1514 16.014 32.666 15.762C32.1807 15.5007 31.798 15.1367 31.518 14.67C31.2474 14.2033 31.112 13.662 31.112 13.046ZM32.428 13.06C32.428 13.424 32.5074 13.76 32.666 14.068C32.834 14.376 33.058 14.6187 33.338 14.796C33.6274 14.9733 33.9447 15.062 34.29 15.062C34.8314 15.062 35.2794 14.8707 35.634 14.488C35.9887 14.1053 36.166 13.6293 36.166 13.06C36.166 12.4907 35.9887 12.0147 35.634 11.632C35.2794 11.24 34.8314 11.044 34.29 11.044C33.9354 11.044 33.618 11.1373 33.338 11.324C33.058 11.5013 32.834 11.744 32.666 12.052C32.5074 12.36 32.428 12.696 32.428 13.06ZM43.3469 5.15V16H42.0449V5.15H43.3469ZM49.7153 5.15V16H48.4133V5.15H49.7153ZM62.3333 5.878H65.1053C66.3653 5.878 67.406 6.13 68.2273 6.634C69.058 7.12867 69.66 7.77267 70.0333 8.566C70.416 9.35 70.6073 10.1807 70.6073 11.058C70.6073 12.038 70.3787 12.906 69.9213 13.662C69.464 14.4087 68.8527 14.9873 68.0873 15.398C67.322 15.7993 66.4913 16 65.5953 16H62.3333V5.878ZM65.3293 14.684C66.076 14.684 66.7433 14.5393 67.3313 14.25C67.9193 13.9513 68.3767 13.522 68.7033 12.962C69.0393 12.402 69.2073 11.7347 69.2073 10.96C69.2073 10.1667 69.0347 9.48533 68.6893 8.916C68.344 8.34667 67.882 7.91733 67.3033 7.628C66.734 7.32933 66.118 7.18 65.4553 7.18H63.6913V14.684H65.3293ZM74.862 13.046C74.862 12.4767 74.9974 11.9587 75.268 11.492C75.548 11.016 75.9307 10.6427 76.416 10.372C76.9107 10.1013 77.466 9.966 78.082 9.966C78.698 9.966 79.244 10.1013 79.72 10.372C80.2054 10.6427 80.5787 11.0113 80.84 11.478C81.1107 11.9447 81.246 12.4673 81.246 13.046C81.246 13.6247 81.1107 14.152 80.84 14.628C80.5787 15.0947 80.2054 15.4633 79.72 15.734C79.2347 16.0047 78.6794 16.14 78.054 16.14C77.4474 16.14 76.9014 16.014 76.416 15.762C75.9307 15.5007 75.548 15.1367 75.268 14.67C74.9974 14.2033 74.862 13.662 74.862 13.046ZM76.178 13.06C76.178 13.424 76.2574 13.76 76.416 14.068C76.584 14.376 76.808 14.6187 77.088 14.796C77.3774 14.9733 77.6947 15.062 78.04 15.062C78.5814 15.062 79.0294 14.8707 79.384 14.488C79.7387 14.1053 79.916 13.6293 79.916 13.06C79.916 12.4907 79.7387 12.0147 79.384 11.632C79.0294 11.24 78.5814 11.044 78.04 11.044C77.6854 11.044 77.368 11.1373 77.088 11.324C76.808 11.5013 76.584 11.744 76.416 12.052C76.2574 12.36 76.178 12.696 76.178 13.06ZM93.6672 10.204L90.9932 16.35L89.1312 12.374L87.4372 16.35L84.7492 10.204H86.0372L87.5912 13.718L88.6692 11.198L88.2072 10.204H89.3412L90.9092 13.802L92.3792 10.204H93.6672ZM101.462 9.98C102.004 9.98 102.452 10.1433 102.806 10.47C103.161 10.7873 103.343 11.2027 103.352 11.716V16H102.036V12.164C102.018 11.8373 101.92 11.5807 101.742 11.394C101.565 11.2073 101.299 11.1093 100.944 11.1C100.431 11.1 100.006 11.3053 99.6705 11.716C99.3345 12.1267 99.1665 12.6493 99.1665 13.284V16H97.8645V10.204H99.0405L99.1245 11.324C99.3298 10.904 99.6378 10.5773 100.048 10.344C100.459 10.1013 100.93 9.98 101.462 9.98Z" fill="white"/>
<path fill-rule="evenodd" clip-rule="evenodd" d="M50.125 30.6512L46.75 27.2763L47.5937 26.4324L53.4999 32.3387L59.4062 26.3622L60.25 27.2061L53.4999 34.0263L52.6562 33.1827L50.125 30.6512Z" fill="white"/>
</g>
<defs>
<clipPath id="clip0_0_90">
<rect width="108" height="46" fill="white"/>
</clipPath>
</defs>
</svg>
